<?xml version="1.0" standalone="no"?>
<!DOCTYPE svg PUBLIC "-//W3C//DTD SVG 20010904//EN"
 "http://www.w3.org/TR/2001/REC-SVG-20010904/DTD/svg10.dtd">
<svg version="1.0" xmlns="http://www.w3.org/2000/svg"
 width="823.000000pt" height="108.000000pt" viewBox="0 0 823.000000 108.000000"
 preserveAspectRatio="xMidYMid meet">
<metadata>
Created by potrace 1.14, written by Peter Selinger 2001-2017
</metadata>
<g transform="translate(0.000000,108.000000) scale(0.100000,-0.100000)"
fill="#ffffff" stroke="none">
<path d="M1215 1070 c-156 -24 -297 -90 -428 -198 -37 -31 -82 -67 -98 -79
-17 -12 -58 -47 -92 -77 -186 -167 -335 -240 -534 -262 l-63 -7 0 -223 0 -224
4115 0 4115 0 0 223 0 222 -105 17 c-169 28 -298 89 -459 219 -230 186 -376
273 -521 309 -103 27 -283 36 -405 21 -192 -23 -313 -71 -540 -211 -164 -101
-250 -142 -372 -176 -81 -23 -117 -27 -290 -31 -123 -3 -234 -1 -295 7 -54 6
-120 14 -148 16 -27 3 -117 19 -200 36 -298 60 -426 77 -670 84 -332 11 -564
-34 -850 -165 -67 -31 -225 -79 -315 -96 -47 -9 -155 -19 -241 -22 -335 -12
-506 59 -785 328 -34 32 -65 59 -68 59 -4 0 -39 25 -79 55 -155 119 -304 173
-496 180 -64 2 -143 0 -176 -5z"/>
</g>
</svg>
